<svg id="wave" style="transform:rotate(0deg); transition: 0.3s" viewBox="0 0 1440 350" version="1.1" xmlns="http://www.w3.org/2000/svg"><defs><linearGradient id="sw-gradient-0" x1="0" x2="0" y1="1" y2="0"><stop stop-color="rgba(105.052, 25.538, 0, 0.17)" offset="0%"></stop><stop stop-color="rgba(88.097, 81.95, 155.142, 0.19)" offset="100%"></stop></linearGradient></defs><path style="transform:translate(0, 0px); opacity:1" fill="url(#sw-gradient-0)" d="M0,105L20,105C40,105,80,105,120,140C160,175,200,245,240,280C280,315,320,315,360,291.7C400,268,440,222,480,186.7C520,152,560,128,600,128.3C640,128,680,152,720,134.2C760,117,800,58,840,75.8C880,93,920,187,960,192.5C1000,198,1040,117,1080,75.8C1120,35,1160,35,1200,40.8C1240,47,1280,58,1320,75.8C1360,93,1400,117,1440,105C1480,93,1520,47,1560,70C1600,93,1640,187,1680,198.3C1720,210,1760,140,1800,99.2C1840,58,1880,47,1920,75.8C1960,105,2000,175,2040,192.5C2080,210,2120,175,2160,175C2200,175,2240,210,2280,239.2C2320,268,2360,292,2400,268.3C2440,245,2480,175,2520,122.5C2560,70,2600,35,2640,23.3C2680,12,2720,23,2760,40.8C2800,58,2840,82,2860,93.3L2880,105L2880,350L2860,350C2840,350,2800,350,2760,350C2720,350,2680,350,2640,350C2600,350,2560,350,2520,350C2480,350,2440,350,2400,350C2360,350,2320,350,2280,350C2240,350,2200,350,2160,350C2120,350,2080,350,2040,350C2000,350,1960,350,1920,350C1880,350,1840,350,1800,350C1760,350,1720,350,1680,350C1640,350,1600,350,1560,350C1520,350,1480,350,1440,350C1400,350,1360,350,1320,350C1280,350,1240,350,1200,350C1160,350,1120,350,1080,350C1040,350,1000,350,960,350C920,350,880,350,840,350C800,350,760,350,720,350C680,350,640,350,600,350C560,350,520,350,480,350C440,350,400,350,360,350C320,350,280,350,240,350C200,350,160,350,120,350C80,350,40,350,20,350L0,350Z"></path><defs><linearGradient id="sw-gradient-1" x1="0" x2="0" y1="1" y2="0"><stop stop-color="rgba(177.909, 87.95, 171.942, 0.16)" offset="0%"></stop><stop stop-color="rgba(148.573, 225.722, 126.879, 0.18)" offset="100%"></stop></linearGradient></defs><path style="transform:translate(0, 50px); opacity:0.9" fill="url(#sw-gradient-1)" d="M0,70L20,110.8C40,152,80,233,120,256.7C160,280,200,245,240,198.3C280,152,320,93,360,87.5C400,82,440,128,480,134.2C520,140,560,105,600,93.3C640,82,680,93,720,93.3C760,93,800,82,840,93.3C880,105,920,140,960,180.8C1000,222,1040,268,1080,291.7C1120,315,1160,315,1200,274.2C1240,233,1280,152,1320,110.8C1360,70,1400,70,1440,75.8C1480,82,1520,93,1560,93.3C1600,93,1640,82,1680,70C1720,58,1760,47,1800,46.7C1840,47,1880,58,1920,99.2C1960,140,2000,210,2040,227.5C2080,245,2120,210,2160,186.7C2200,163,2240,152,2280,169.2C2320,187,2360,233,2400,239.2C2440,245,2480,210,2520,169.2C2560,128,2600,82,2640,87.5C2680,93,2720,152,2760,169.2C2800,187,2840,163,2860,151.7L2880,140L2880,350L2860,350C2840,350,2800,350,2760,350C2720,350,2680,350,2640,350C2600,350,2560,350,2520,350C2480,350,2440,350,2400,350C2360,350,2320,350,2280,350C2240,350,2200,350,2160,350C2120,350,2080,350,2040,350C2000,350,1960,350,1920,350C1880,350,1840,350,1800,350C1760,350,1720,350,1680,350C1640,350,1600,350,1560,350C1520,350,1480,350,1440,350C1400,350,1360,350,1320,350C1280,350,1240,350,1200,350C1160,350,1120,350,1080,350C1040,350,1000,350,960,350C920,350,880,350,840,350C800,350,760,350,720,350C680,350,640,350,600,350C560,350,520,350,480,350C440,350,400,350,360,350C320,350,280,350,240,350C200,350,160,350,120,350C80,350,40,350,20,350L0,350Z"></path><defs><linearGradient id="sw-gradient-2" x1="0" x2="0" y1="1" y2="0"><stop stop-color="rgba(243, 106, 62, 0.17)" offset="0%"></stop><stop stop-color="rgba(239.383, 176.423, 37.25, 0.14)" offset="100%"></stop></linearGradient></defs><path style="transform:translate(0, 100px); opacity:0.8" fill="url(#sw-gradient-2)" d="M0,210L20,210C40,210,80,210,120,198.3C160,187,200,163,240,175C280,187,320,233,360,245C400,257,440,233,480,204.2C520,175,560,140,600,140C640,140,680,175,720,169.2C760,163,800,117,840,99.2C880,82,920,93,960,81.7C1000,70,1040,35,1080,52.5C1120,70,1160,140,1200,157.5C1240,175,1280,140,1320,128.3C1360,117,1400,128,1440,163.3C1480,198,1520,257,1560,239.2C1600,222,1640,128,1680,87.5C1720,47,1760,58,1800,64.2C1840,70,1880,70,1920,64.2C1960,58,2000,47,2040,64.2C2080,82,2120,128,2160,169.2C2200,210,2240,245,2280,221.7C2320,198,2360,117,2400,110.8C2440,105,2480,175,2520,192.5C2560,210,2600,175,2640,180.8C2680,187,2720,233,2760,239.2C2800,245,2840,210,2860,192.5L2880,175L2880,350L2860,350C2840,350,2800,350,2760,350C2720,350,2680,350,2640,350C2600,350,2560,350,2520,350C2480,350,2440,350,2400,350C2360,350,2320,350,2280,350C2240,350,2200,350,2160,350C2120,350,2080,350,2040,350C2000,350,1960,350,1920,350C1880,350,1840,350,1800,350C1760,350,1720,350,1680,350C1640,350,1600,350,1560,350C1520,350,1480,350,1440,350C1400,350,1360,350,1320,350C1280,350,1240,350,1200,350C1160,350,1120,350,1080,350C1040,350,1000,350,960,350C920,350,880,350,840,350C800,350,760,350,720,350C680,350,640,350,600,350C560,350,520,350,480,350C440,350,400,350,360,350C320,350,280,350,240,350C200,350,160,350,120,350C80,350,40,350,20,350L0,350Z"></path></svg>